<svg width="1440" height="1024" viewBox="0 0 1440 1024" fill="none" xmlns="http://www.w3.org/2000/svg">
<path d="M1224.52 564.68C724.045 649.269 388.864 604.251 944.517 247.68C1500.17 -108.89 24.2683 208.857 105.518 452.68C178.457 671.566 -36.3925 649.442 -316.099 886.048C-796.482 1292.41 1479.53 1468.72 1132.52 1216.68C847.518 1009.68 1724.99 480.091 1224.52 564.68Z" stroke="#1d4fd883" strokeOpacity="0.4" strokeWidth="2"/>
<path d="M1896.42 387.761C1071.88 489.223 817.5 455.5 1435.12 7.53098C2052.73 -440.438 -156.86 4.04198 -23.0001 296.5C97.1691 559.046 -471.188 259.617 -641.779 773.231C-1022 1918 2316.57 1472.13 1744.85 1169.81C1275.31 921.523 2720.96 286.3 1896.42 387.761Z" stroke="#1d4fd883" strokeOpacity="0.4" strokeWidth="2"/>
<path d="M727 657.5C494.496 706.601 358.585 611.665 616.725 404.689C874.865 197.712 189.205 382.153 226.951 523.684C260.836 650.739 161.023 637.897 31.0802 775.238C-192.091 1011.12 865.277 1113.46 704.064 967.158C571.661 847.002 959.504 608.399 727 657.5Z" stroke="#1d4fd883" strokeOpacity="0.4" strokeWidth="2"/>
<path d="M542.126 774.9C417.038 799.756 426 774.9 408.5 707.159C391 639.418 319 536.5 273.099 707.159C255.736 771.717 237.63 764.977 167.721 834.502C47.6549 953.91 616.518 1005.72 529.786 931.657C458.553 870.831 667.213 750.044 542.126 774.9Z" stroke="#1d4fd883" strokeOpacity="0.4" strokeWidth="2"/>
</svg>
