<svg width="74" height="47" viewBox="0 0 74 47" fill="none" xmlns="http://www.w3.org/2000/svg">
<path d="M15.2995 11.9788C17.0411 11.9792 18.6035 12.4841 19.9867 13.4936C21.3862 14.503 22.6067 15.5693 23.6481 16.6926L23.8685 13.6165C23.8686 13.1445 23.9989 12.7458 24.2594 12.4203C24.5199 12.0786 24.8862 11.9077 25.3582 11.9078C25.8302 11.908 26.2289 12.0789 26.5543 12.4208C26.8961 12.7464 27.0669 13.1452 27.0668 13.6172L27.0618 35.6875C27.0617 36.1595 26.8907 36.5664 26.5488 36.9081C26.2232 37.2336 25.8244 37.3962 25.3524 37.3961C24.8804 37.396 24.4736 37.2332 24.1318 36.9076C23.8064 36.5657 23.6437 36.1588 23.6438 35.6868L23.6444 32.9036C22.57 34.0752 21.2921 35.1328 19.8107 36.0765C18.3457 37.0202 16.7993 37.4919 15.1717 37.4915C13.4953 37.4911 11.941 37.149 10.5089 36.4651C9.07675 35.7649 7.8237 34.8206 6.74975 33.6322C5.6758 32.4438 4.83789 31.0927 4.23602 29.5789C3.65042 28.0488 3.35782 26.4455 3.35819 24.7691C3.35857 23.1089 3.65189 21.514 4.23818 19.9841C4.84074 18.4381 5.67926 17.0711 6.75375 15.8831C7.84451 14.679 9.11426 13.7271 10.563 13.0276C12.0117 12.328 13.5906 11.9784 15.2995 11.9788ZM23.7684 24.6272C23.7687 23.0484 23.3866 21.5835 22.6219 20.2324C21.8735 18.8651 20.8565 17.7581 19.5709 16.9114C18.3016 16.0648 16.8856 15.6413 15.3231 15.6409C13.7444 15.6406 12.3283 16.0716 11.0748 16.9339C9.82135 17.7963 8.82826 18.9272 8.09552 20.3268C7.37906 21.7101 7.02066 23.1912 7.0203 24.7699C7.01995 26.3324 7.37769 27.8055 8.09353 29.1891C8.80936 30.5727 9.77753 31.696 10.998 32.5589C12.2348 33.4055 13.6263 33.829 15.1726 33.8294C16.7351 33.8297 18.1674 33.3987 19.4697 32.5364C20.772 31.6578 21.8139 30.5187 22.5955 29.1191C23.3771 27.7033 23.768 26.206 23.7684 24.6272ZM34.1175 44.2096C34.1174 44.6328 33.9545 45.0397 33.6289 45.4302C33.3033 45.837 32.9452 46.0404 32.5546 46.0403C31.1548 46.04 30.4551 45.4214 30.4554 44.1844L30.4637 7.44122C30.4638 6.92039 30.6429 6.48911 31.0011 6.1474C31.3592 5.78941 31.7906 5.61047 32.2951 5.61058C32.816 5.6107 33.2472 5.78983 33.5889 6.14798C33.9469 6.50613 34.1259 6.94563 34.1258 7.46646L34.1175 44.2096ZM49.2088 37.4992C47.4999 37.4988 45.9619 37.0427 44.5949 36.1309C43.2279 35.2192 42.0807 34.2912 41.1531 33.347L41.0305 35.6907C41.0304 36.1952 40.8676 36.6265 40.542 36.9845C40.2326 37.3425 39.8257 37.5215 39.3211 37.5213C38.8166 37.5212 38.3853 37.3421 38.0273 36.9839C37.6693 36.6258 37.4904 36.1944 37.4905 35.6899L37.4974 4.95257C37.4975 4.44801 37.6767 4.01674 38.0348 3.65875C38.393 3.30075 38.8243 3.12181 39.3289 3.12193C39.8334 3.12204 40.2647 3.30118 40.6227 3.65933C40.9807 4.01748 41.1596 4.44884 41.1595 4.9534L41.157 15.9886C42.1501 14.9471 43.3059 14.0278 44.6245 13.2305C45.943 12.4333 47.3998 12.0349 48.9949 12.0352C50.6876 12.0356 52.2337 12.394 53.6333 13.1105C55.0491 13.827 56.2778 14.7957 57.3192 16.0166C58.3605 17.2213 59.1659 18.5968 59.7352 20.1431C60.3045 21.6895 60.589 23.2927 60.5886 24.9529C60.5881 27.1502 60.0994 29.209 59.1224 31.1293C58.1454 33.0334 56.8023 34.5712 55.093 35.7427C53.3838 36.9142 51.4224 37.4997 49.2088 37.4992ZM49.1364 33.837C50.6827 33.8374 52.0337 33.4308 53.1894 32.6172C54.3615 31.7874 55.2651 30.7053 55.9001 29.3708C56.5515 28.02 56.8773 26.5715 56.8777 25.0253C56.878 23.4628 56.5528 21.9735 55.9021 20.5573C55.2514 19.1249 54.3402 17.9609 53.1685 17.0655C51.9969 16.1538 50.6216 15.6977 49.0429 15.6974C47.4153 15.697 46.0073 16.128 44.8189 16.9904C43.6469 17.8364 42.7433 18.9349 42.1082 20.2856C41.4894 21.6364 41.1799 23.0768 41.1795 24.6067C41.1792 26.1367 41.4962 27.6097 42.1307 29.0259C42.7651 30.442 43.6763 31.5978 44.8643 32.4933C46.0685 33.3887 47.4925 33.8367 49.1364 33.837Z" fill="#1E1E1E"/>
<line x1="33.008" y1="44.0111" x2="71.2551" y2="44.0197" stroke="#1E1E1E" stroke-width="4" stroke-linecap="round"/>
<line x1="70.5073" y1="34.5157" x2="67.6196" y2="34.515" stroke="#1E1E1E" stroke-width="5" stroke-linecap="round"/>
</svg>
