<svg width="38" height="87" viewBox="0 0 38 87" fill="none" xmlns="http://www.w3.org/2000/svg">
<path d="M8.02848 71.0909V72.7955H2.06967V71.0909H8.02848ZM3.66769 68.4773H5.79127V78.7969C5.79127 79.2088 5.85282 79.5189 5.97592 79.7273C6.09903 79.9309 6.25765 80.0705 6.45178 80.1463C6.65064 80.2173 6.86608 80.2528 7.09808 80.2528C7.26854 80.2528 7.41769 80.241 7.54553 80.2173C7.67337 80.1937 7.7728 80.1747 7.84382 80.1605L8.22734 81.9148C8.10424 81.9621 7.92905 82.0095 7.70178 82.0568C7.4745 82.1089 7.19041 82.1373 6.8495 82.142C6.29079 82.1515 5.76996 82.0521 5.287 81.8438C4.80405 81.6354 4.41342 81.3134 4.11513 80.8778C3.81683 80.4422 3.66769 79.8954 3.66769 79.2372V68.4773ZM14.0555 82.2202C13.0328 82.2202 12.1403 81.9858 11.378 81.517C10.6157 81.0483 10.0238 80.3925 9.60242 79.5497C9.18101 78.7069 8.97031 77.7221 8.97031 76.5952C8.97031 75.4635 9.18101 74.474 9.60242 73.6264C10.0238 72.7789 10.6157 72.1207 11.378 71.652C12.1403 71.1832 13.0328 70.9489 14.0555 70.9489C15.0783 70.9489 15.9708 71.1832 16.7331 71.652C17.4954 72.1207 18.0873 72.7789 18.5087 73.6264C18.9301 74.474 19.1408 75.4635 19.1408 76.5952C19.1408 77.7221 18.9301 78.7069 18.5087 79.5497C18.0873 80.3925 17.4954 81.0483 16.7331 81.517C15.9708 81.9858 15.0783 82.2202 14.0555 82.2202ZM14.0626 80.4375C14.7255 80.4375 15.2748 80.2623 15.7104 79.9119C16.146 79.5616 16.4679 79.0952 16.6763 78.5128C16.8893 77.9304 16.9959 77.2888 16.9959 76.5881C16.9959 75.892 16.8893 75.2528 16.6763 74.6705C16.4679 74.0833 16.146 73.6122 15.7104 73.2571C15.2748 72.902 14.7255 72.7244 14.0626 72.7244C13.395 72.7244 12.8411 72.902 12.4007 73.2571C11.9651 73.6122 11.6408 74.0833 11.4277 74.6705C11.2194 75.2528 11.1152 75.892 11.1152 76.5881C11.1152 77.2888 11.2194 77.9304 11.4277 78.5128C11.6408 79.0952 11.9651 79.5616 12.4007 79.9119C12.8411 80.2623 13.395 80.4375 14.0626 80.4375ZM20.7112 86.0909V71.0909H22.785V72.8594H22.9626C23.0857 72.6321 23.2632 72.3693 23.4952 72.071C23.7272 71.7727 24.0492 71.5123 24.4612 71.2898C24.8731 71.0625 25.4176 70.9489 26.0947 70.9489C26.9754 70.9489 27.7613 71.1714 28.4526 71.6165C29.1439 72.0616 29.6861 72.7031 30.079 73.5412C30.4768 74.3793 30.6756 75.3878 30.6756 76.5668C30.6756 77.7457 30.4791 78.7566 30.0862 79.5994C29.6932 80.4375 29.1534 81.0838 28.4668 81.5384C27.7803 81.9882 26.9967 82.2131 26.116 82.2131C25.4531 82.2131 24.911 82.1018 24.4896 81.8793C24.0729 81.6567 23.7462 81.3963 23.5094 81.098C23.2727 80.7997 23.0904 80.5346 22.9626 80.3026H22.8347V86.0909H20.7112ZM22.7921 76.5455C22.7921 77.3125 22.9034 77.9848 23.1259 78.5625C23.3485 79.1402 23.6704 79.5923 24.0918 79.919C24.5132 80.241 25.0293 80.402 25.6401 80.402C26.2746 80.402 26.8049 80.2339 27.231 79.8977C27.6572 79.5568 27.9791 79.0952 28.1969 78.5128C28.4195 77.9304 28.5308 77.2746 28.5308 76.5455C28.5308 75.8258 28.4219 75.1795 28.204 74.6065C27.991 74.0336 27.669 73.5814 27.2381 73.25C26.812 72.9186 26.2793 72.7528 25.6401 72.7528C25.0246 72.7528 24.5038 72.9115 24.0776 73.2287C23.6562 73.5459 23.3366 73.9886 23.1188 74.5568C22.901 75.125 22.7921 75.7879 22.7921 76.5455ZM33.654 82.1349C33.2658 82.1349 32.932 81.9976 32.6526 81.723C32.3733 81.4437 32.2336 81.1075 32.2336 80.7145C32.2336 80.3262 32.3733 79.9948 32.6526 79.7202C32.932 79.4408 33.2658 79.3011 33.654 79.3011C34.0423 79.3011 34.3761 79.4408 34.6555 79.7202C34.9348 79.9948 35.0745 80.3262 35.0745 80.7145C35.0745 80.9749 35.0082 81.214 34.8756 81.4318C34.7478 81.6449 34.5773 81.8153 34.3643 81.9432C34.1512 82.071 33.9145 82.1349 33.654 82.1349Z" fill="white"/>
<rect x="18" width="2" height="68" fill="white"/>
</svg>
