<svg width="38" height="35" viewBox="0 0 38 35" fill="none" xmlns="http://www.w3.org/2000/svg">
<path d="M8.02848 19.0909V20.7955H2.06967V19.0909H8.02848ZM3.66769 16.4773H5.79127V26.7969C5.79127 27.2088 5.85282 27.5189 5.97592 27.7273C6.09903 27.9309 6.25765 28.0705 6.45178 28.1463C6.65064 28.2173 6.86608 28.2528 7.09808 28.2528C7.26854 28.2528 7.41769 28.241 7.54553 28.2173C7.67337 28.1937 7.7728 28.1747 7.84382 28.1605L8.22734 29.9148C8.10424 29.9621 7.92905 30.0095 7.70178 30.0568C7.4745 30.1089 7.19041 30.1373 6.8495 30.142C6.29079 30.1515 5.76996 30.0521 5.287 29.8438C4.80405 29.6354 4.41342 29.3134 4.11513 28.8778C3.81683 28.4422 3.66769 27.8954 3.66769 27.2372V16.4773ZM14.0555 30.2202C13.0328 30.2202 12.1403 29.9858 11.378 29.517C10.6157 29.0483 10.0238 28.3925 9.60242 27.5497C9.18101 26.7069 8.97031 25.7221 8.97031 24.5952C8.97031 23.4635 9.18101 22.474 9.60242 21.6264C10.0238 20.7789 10.6157 20.1207 11.378 19.652C12.1403 19.1832 13.0328 18.9489 14.0555 18.9489C15.0783 18.9489 15.9708 19.1832 16.7331 19.652C17.4954 20.1207 18.0873 20.7789 18.5087 21.6264C18.9301 22.474 19.1408 23.4635 19.1408 24.5952C19.1408 25.7221 18.9301 26.7069 18.5087 27.5497C18.0873 28.3925 17.4954 29.0483 16.7331 29.517C15.9708 29.9858 15.0783 30.2202 14.0555 30.2202ZM14.0626 28.4375C14.7255 28.4375 15.2748 28.2623 15.7104 27.9119C16.146 27.5616 16.4679 27.0952 16.6763 26.5128C16.8893 25.9304 16.9959 25.2888 16.9959 24.5881C16.9959 23.892 16.8893 23.2528 16.6763 22.6705C16.4679 22.0833 16.146 21.6122 15.7104 21.2571C15.2748 20.902 14.7255 20.7244 14.0626 20.7244C13.395 20.7244 12.8411 20.902 12.4007 21.2571C11.9651 21.6122 11.6408 22.0833 11.4277 22.6705C11.2194 23.2528 11.1152 23.892 11.1152 24.5881C11.1152 25.2888 11.2194 25.9304 11.4277 26.5128C11.6408 27.0952 11.9651 27.5616 12.4007 27.9119C12.8411 28.2623 13.395 28.4375 14.0626 28.4375ZM20.7112 34.0909V19.0909H22.785V20.8594H22.9626C23.0857 20.6321 23.2632 20.3693 23.4952 20.071C23.7272 19.7727 24.0492 19.5123 24.4612 19.2898C24.8731 19.0625 25.4176 18.9489 26.0947 18.9489C26.9754 18.9489 27.7613 19.1714 28.4526 19.6165C29.1439 20.0616 29.6861 20.7031 30.079 21.5412C30.4768 22.3793 30.6756 23.3878 30.6756 24.5668C30.6756 25.7457 30.4791 26.7566 30.0862 27.5994C29.6932 28.4375 29.1534 29.0838 28.4668 29.5384C27.7803 29.9882 26.9967 30.2131 26.116 30.2131C25.4531 30.2131 24.911 30.1018 24.4896 29.8793C24.0729 29.6567 23.7462 29.3963 23.5094 29.098C23.2727 28.7997 23.0904 28.5346 22.9626 28.3026H22.8347V34.0909H20.7112ZM22.7921 24.5455C22.7921 25.3125 22.9034 25.9848 23.1259 26.5625C23.3485 27.1402 23.6704 27.5923 24.0918 27.919C24.5132 28.241 25.0293 28.402 25.6401 28.402C26.2746 28.402 26.8049 28.2339 27.231 27.8977C27.6572 27.5568 27.9791 27.0952 28.1969 26.5128C28.4195 25.9304 28.5308 25.2746 28.5308 24.5455C28.5308 23.8258 28.4219 23.1795 28.204 22.6065C27.991 22.0336 27.669 21.5814 27.2381 21.25C26.812 20.9186 26.2793 20.7528 25.6401 20.7528C25.0246 20.7528 24.5038 20.9115 24.0776 21.2287C23.6562 21.5459 23.3366 21.9886 23.1188 22.5568C22.901 23.125 22.7921 23.7879 22.7921 24.5455ZM33.654 30.1349C33.2658 30.1349 32.932 29.9976 32.6526 29.723C32.3733 29.4437 32.2336 29.1075 32.2336 28.7145C32.2336 28.3262 32.3733 27.9948 32.6526 27.7202C32.932 27.4408 33.2658 27.3011 33.654 27.3011C34.0423 27.3011 34.3761 27.4408 34.6555 27.7202C34.9348 27.9948 35.0745 28.3262 35.0745 28.7145C35.0745 28.9749 35.0082 29.214 34.8756 29.4318C34.7478 29.6449 34.5773 29.8153 34.3643 29.9432C34.1512 30.071 33.9145 30.1349 33.654 30.1349Z" fill="white"/>
<path d="M15.4999 0L27.1913 14.25H24L15.4999 4L7 14.25H3.80859L15.4999 0Z" fill="white"/>
</svg>
